<?xml version="1.0" encoding="UTF-8" standalone="no"?>
<!-- Created with Inkscape (http://www.inkscape.org/) -->
<svg
   xmlns:dc="http://purl.org/dc/elements/1.1/"
   xmlns:cc="http://creativecommons.org/ns#"
   xmlns:rdf="http://www.w3.org/1999/02/22-rdf-syntax-ns#"
   xmlns:svg="http://www.w3.org/2000/svg"
   xmlns="http://www.w3.org/2000/svg"
   xmlns:xlink="http://www.w3.org/1999/xlink"
   xmlns:sodipodi="http://sodipodi.sourceforge.net/DTD/sodipodi-0.dtd"
   xmlns:inkscape="http://www.inkscape.org/namespaces/inkscape"
   width="32"
   height="32"
   id="svg2"
   sodipodi:version="0.32"
   inkscape:version="0.46"
   sodipodi:docname="cozy.svg"
   inkscape:output_extension="org.inkscape.output.svg.inkscape"
   inkscape:export-filename="/home/peter/Projects/Cozy/cozy.png"
   inkscape:export-xdpi="9.4943438"
   inkscape:export-ydpi="9.4943438"
   version="1.0">
  <defs
     id="defs4">
    <linearGradient
       id="linearGradient3155">
      <stop
         style="stop-color:#fdffff;stop-opacity:1;"
         offset="0"
         id="stop3157" />
      <stop
         id="stop3167"
         offset="0.81343281"
         style="stop-color:#ffffff;stop-opacity:0.76410258;" />
      <stop
         style="stop-color:#000000;stop-opacity:1;"
         offset="1"
         id="stop3159" />
    </linearGradient>
    <inkscape:perspective
       sodipodi:type="inkscape:persp3d"
       inkscape:vp_x="0 : 526.18109 : 1"
       inkscape:vp_y="0 : 1000 : 0"
       inkscape:vp_z="744.09448 : 526.18109 : 1"
       inkscape:persp3d-origin="372.04724 : 350.78739 : 1"
       id="perspective10" />
    <radialGradient
       inkscape:collect="always"
       xlink:href="#linearGradient3155"
       id="radialGradient3161"
       cx="330.00522"
       cy="370.92889"
       fx="330.00522"
       fy="370.92889"
       r="125.05059"
       gradientTransform="matrix(1,0,0,0.9429255,0,21.170563)"
       gradientUnits="userSpaceOnUse" />
    <radialGradient
       inkscape:collect="always"
       xlink:href="#linearGradient3155"
       id="radialGradient3327"
       gradientUnits="userSpaceOnUse"
       gradientTransform="matrix(1,0,0,0.9429255,0,21.170563)"
       cx="330.00522"
       cy="370.92889"
       fx="330.00522"
       fy="370.92889"
       r="125.05059" />
  </defs>
  <sodipodi:namedview
     id="base"
     pagecolor="#ffffff"
     bordercolor="#666666"
     borderopacity="1.0"
     inkscape:pageopacity="0.0"
     inkscape:pageshadow="2"
     inkscape:zoom="4.1979291"
     inkscape:cx="15.999999"
     inkscape:cy="15.999998"
     inkscape:document-units="px"
     inkscape:current-layer="layer1"
     showgrid="false"
     inkscape:window-width="1400"
     inkscape:window-height="978"
     inkscape:window-x="0"
     inkscape:window-y="25" />
  <metadata
     id="metadata7">
    <rdf:RDF>
      <cc:Work
         rdf:about="">
        <dc:format>image/svg+xml</dc:format>
        <dc:type
           rdf:resource="http://purl.org/dc/dcmitype/StillImage" />
      </cc:Work>
    </rdf:RDF>
  </metadata>
  <g
     inkscape:label="Ebene 1"
     inkscape:groupmode="layer"
     id="layer1">
    <path
       sodipodi:type="arc"
       style="stroke:none;stroke-width:12.71608067;stroke-miterlimit:4;stroke-dasharray:none;stroke-opacity:1"
       id="path3163"
       sodipodi:cx="314.28571"
       sodipodi:cy="332.36218"
       sodipodi:rx="97.14286"
       sodipodi:ry="97.14286"
       d="M 411.42857,332.36218 A 97.14286,97.14286 0 1 1 217.14285,332.36218 A 97.14286,97.14286 0 1 1 411.42857,332.36218 z"
       transform="matrix(0.1663971,0,0,0.1560659,-36.296246,-36.201)" />
    <path
       sodipodi:type="spiral"
       style="fill:none;fill-rule:evenodd;stroke:url(#radialGradient3327);stroke-width:14.34944725;stroke-linecap:round;stroke-linejoin:miter;stroke-miterlimit:4;stroke-dasharray:none;stroke-opacity:1"
       id="path2383"
       sodipodi:cx="337.14285"
       sodipodi:cy="363.79074"
       sodipodi:expansion="0.93000001"
       sodipodi:revolution="4.4000001"
       sodipodi:radius="125.74675"
       sodipodi:argument="-17.301483"
       sodipodi:t0="0"
       d="M 337.14285,363.79074 C 337.26547,369.18565 330.14506,366.77025 328.41198,363.98917 C 324.19525,357.22259 330.2232,349.2553 336.76479,347.15601 C 348.03249,343.54004 359.0113,352.44933 361.3967,363.23951 C 364.80722,378.66676 352.75805,392.93273 337.86317,395.48449 C 318.39966,398.81894 300.81634,383.59087 298.13968,364.67718 C 294.82459,341.25221 313.22344,320.36311 336.09261,317.58047 C 363.42397,314.25489 387.59765,335.80458 390.47622,362.57861 C 393.82996,393.77218 369.15193,421.20747 338.51526,424.17608 C 303.49658,427.56931 272.82209,399.78515 269.76714,365.32202 C 266.32671,326.5103 297.19597,292.61775 335.45393,289.47893 C 378.03044,285.9858 415.12133,319.92055 418.34229,361.94528 C 421.89216,408.2613 384.91016,448.53218 339.14385,451.83406 C 289.11118,455.44374 245.67737,415.4314 242.29551,365.94638 C 238.62365,312.2179 281.65057,265.63708 334.83341,262.17595 C 392.2385,258.44004 441.95147,304.46683 445.49131,361.32825 C 449.29277,422.39221 400.27985,475.22339 339.75767,478.84148 C 275.05136,482.70971 219.11508,430.72358 215.4191,366.55721 C 213.15733,327.29029 230.51941,288.59953 260.93841,263.7651"
       transform="matrix(0.130687,0,0,0.130687,-27.307204,-32.05122)" />
  </g>
</svg>
